<svg width="377" height="104" viewBox="0 0 377 104" fill="none" xmlns="http://www.w3.org/2000/svg">
<path d="M222.759 59.0089L221.418 59.6799L222.759 59.0089ZM373.75 0.509617C374.574 0.415355 375.317 1.00615 375.411 1.82919L376.948 15.2415C377.042 16.0646 376.451 16.8082 375.628 16.9025C374.805 16.9967 374.061 16.4059 373.967 15.5829L372.602 3.66082L360.68 5.0263C359.857 5.12057 359.113 4.52977 359.019 3.70672C358.924 2.88368 359.515 2.14005 360.338 2.04579L373.75 0.509617ZM3.19544 58.1028C27.5267 90.2008 50.6194 100.904 72.093 100.589C93.7036 100.272 114.075 88.8077 132.959 75.6282C142.433 69.0163 151.317 62.1346 159.919 55.9656C168.442 49.8538 176.578 44.5271 184.221 41.3198C191.87 38.11 199.223 36.94 206.065 39.4269C212.907 41.9137 218.896 47.9326 224.101 58.3379L221.418 59.6799C216.397 49.6411 210.883 44.37 205.04 42.2464C199.198 40.1227 192.684 41.0218 185.382 44.0861C178.073 47.1529 170.172 52.3053 161.668 58.4035C153.244 64.4443 144.112 71.5033 134.676 78.0883C115.742 91.3024 94.7219 103.257 72.137 103.589C49.4151 103.922 25.5081 92.5041 0.804688 59.9151L3.19544 58.1028ZM224.101 58.3379C229.115 68.3633 235.131 74.8895 241.752 78.7413C248.366 82.589 255.704 83.8387 263.493 83.1069C279.155 81.6357 296.495 72.1659 312.779 59.9697C329.019 47.8064 344.013 33.0836 354.958 21.3825C360.428 15.5358 364.879 10.4518 367.961 6.83119C369.502 5.02106 370.701 3.57716 371.513 2.58712C371.919 2.09212 372.229 1.71061 372.436 1.45357C372.54 1.32504 372.618 1.22764 372.67 1.16272C372.696 1.13026 372.716 1.10592 372.728 1.08988C372.735 1.08186 372.739 1.0759 372.743 1.07206C372.744 1.07013 372.745 1.06882 372.746 1.06785C372.747 1.06706 372.747 1.0668 373.921 1.99988C375.096 2.93296 375.095 2.93375 375.094 2.93508C375.093 2.93622 375.092 2.93807 375.09 2.94036C375.086 2.94494 375.081 2.95161 375.074 2.96036C375.06 2.97785 375.039 3.00366 375.012 3.0376C374.958 3.10546 374.877 3.20588 374.771 3.33745C374.559 3.60059 374.244 3.98841 373.833 4.48993C373.01 5.49295 371.799 6.95089 370.246 8.77594C367.138 12.4257 362.656 17.5454 357.149 23.432C346.143 35.1975 331.015 50.06 314.577 62.3709C298.184 74.6489 280.289 84.5423 263.774 86.0938C255.474 86.8734 247.488 85.5492 240.243 81.3344C233.006 77.1236 226.629 70.0984 221.418 59.6799L224.101 58.3379Z" fill="#041499"/>
</svg>
