<svg width="26" height="38" viewBox="0 0 26 38" fill="none" xmlns="http://www.w3.org/2000/svg">
<path d="M13.9592 37.906L11.934 34.0978L13.5616 29.395V26.5374L8.59171 29.4199V32.3148L10.7412 36.0423C10.7726 36.1007 10.823 36.1467 10.8841 36.1727L13.9592 37.906Z" fill="#041499"/>
<path opacity="0.2" d="M13.9592 37.906L11.934 34.0978L13.5616 29.395V26.5374L8.59171 29.4199V32.3148L10.7412 36.0423C10.7726 36.1007 10.823 36.1467 10.8841 36.1727L13.9592 37.906Z" fill="black"/>
<path d="M25.8682 3.65105C25.841 3.13169 25.6911 2.62617 25.4309 2.17589C25.1707 1.72561 24.8075 1.34337 24.3711 1.0605L23.1286 0.358502C22.6658 0.122845 22.1539 0 21.6345 0C21.1152 0 20.6032 0.122845 20.1405 0.358502L1.5034 11.1556C1.06767 11.4392 0.704999 11.8216 0.444853 12.2717C0.184708 12.7218 0.0344294 13.227 0.00621796 13.7461V34.2904C0.035406 34.8093 0.186104 35.3141 0.446162 35.764C0.706219 36.214 1.06836 36.5966 1.5034 36.8809L2.74587 37.5829C3.20865 37.8186 3.72061 37.9414 4.23994 37.9414C4.75926 37.9414 5.27123 37.8186 5.73401 37.5829L11.7414 34.1102L13.8784 37.8376C13.9084 37.8914 13.9535 37.9352 14.008 37.9638C14.0626 37.9924 14.1243 38.0045 14.1855 37.9985C14.2468 37.9926 14.3051 37.9689 14.3531 37.9304C14.4012 37.8919 14.437 37.8402 14.4561 37.7817L16.6615 31.2339L24.3524 26.7796C24.7862 26.4959 25.1471 26.1142 25.4061 25.6653C25.6651 25.2164 25.8149 24.7128 25.8434 24.1953L25.8682 3.65105Z" fill="#041499"/>
<path d="M21.0971 17.7158V15.38C21.0971 14.9575 20.8051 14.7898 20.4386 15.001L16.4379 17.3058V12.69C16.4379 12.2676 16.1397 12.0688 15.7732 12.3049L13.7541 13.4728C13.5607 13.5985 13.3997 13.7682 13.2842 13.9679C13.1687 14.1676 13.102 14.3917 13.0894 14.6221V19.2689L9.08865 21.5799C8.89605 21.706 8.736 21.8758 8.62156 22.0756C8.50712 22.2753 8.44152 22.4993 8.43015 22.7292V25.0588C8.43015 25.4813 8.72212 25.6801 9.08865 25.444L13.0894 23.133V27.7488C13.0894 28.1774 13.3876 28.37 13.7541 28.1339L15.7732 26.966C15.9661 26.8412 16.1268 26.6727 16.2423 26.474C16.3578 26.2754 16.4248 26.0523 16.4379 25.8229V21.2009L20.4386 18.89C20.6353 18.7622 20.798 18.5886 20.9127 18.3841C21.0274 18.1796 21.0907 17.9502 21.0971 17.7158Z" fill="#FAFAFA"/>
<path opacity="0.2" d="M0 34.2903C0.029188 34.8092 0.179886 35.314 0.439944 35.7639C0.700001 36.2139 1.06214 36.5965 1.49718 36.8808L2.73965 37.5828C3.16128 37.7938 3.62272 37.9134 4.09377 37.9338C4.56481 37.9541 5.03484 37.8748 5.47309 37.7009C4.77109 37.968 4.23062 37.5704 4.23062 36.7193V16.1626C4.24789 15.642 4.39986 15.1347 4.67169 14.6903L0.459718 12.2613C0.192367 12.7073 0.0427319 13.2139 0.0248547 13.7336L0 34.2903Z" fill="black"/>
<path opacity="0.3" d="M25.8185 3.2224C25.6446 2.60116 25.0668 2.38373 24.3773 2.78132L5.70293 13.5846C5.25861 13.8579 4.89431 14.2436 4.64684 14.7028L0.441071 12.2738C0.692028 11.8171 1.05557 11.4322 1.49717 11.1556L20.1342 0.358502C20.597 0.122845 21.109 0 21.6283 0C22.1476 0 22.6596 0.122845 23.1224 0.358502L24.3648 1.0605C24.7417 1.30274 25.0651 1.61947 25.3151 1.99125C25.565 2.36303 25.7364 2.78199 25.8185 3.2224Z" fill="white"/>
</svg>
